<?xml version="1.0"?>
<svg xmlns="http://www.w3.org/2000/svg" xmlns:xlink="http://www.w3.org/1999/xlink" xmlns:svgjs="http://svgjs.com/svgjs"
  version="1.1" width="512" height="512" x="0" y="0" viewBox="0 0 512 512" style="enable-background:new 0 0 512 512"
  xml:space="preserve" class="">
  <g>
    <path xmlns="http://www.w3.org/2000/svg"
      d="m368 5.01v93.99c0 2.761 2.239 5 5 5h93.99c4.454 0 6.685-5.386 3.536-8.536l-93.99-93.99c-3.15-3.149-8.536-.919-8.536 3.536z"
      fill="#ffffff" data-original="#000000" style="" class="" />
    <path xmlns="http://www.w3.org/2000/svg"
      d="m344 152c-13.255 0-24-10.745-24-24v-128h-226c-29.775 0-54 24.224-54 54v404c0 29.776 24.225 54 54 54h324c29.775 0 54-24.224 54-54v-306zm-24 128h-40v40c0 13.255-10.745 24-24 24s-24-10.745-24-24v-40h-40c-13.255 0-24-10.745-24-24s10.745-24 24-24h40v-40c0-13.255 10.745-24 24-24s24 10.745 24 24v40h40c13.255 0 24 10.745 24 24s-10.745 24-24 24z"
      fill="#ffffff" data-original="#000000" style="" class="" />
  </g>
</svg>